<svg version="1.0" xmlns="http://www.w3.org/2000/svg"
 width="64.000000pt" height="64.000000pt" viewBox="0 0 64.000000 64.000000"
 preserveAspectRatio="xMidYMid meet">

<g transform="translate(0.000000,64.000000) scale(0.100000,-0.100000)"
fill="#000000" stroke="none">
<path d="M248 596 c-100 -27 -175 -103 -204 -204 -51 -175 89 -357 275 -356
114 0 205 56 259 159 37 72 37 178 0 251 -63 120 -205 185 -330 150z m143 -42
c53 -16 139 -86 139 -113 0 -6 -18 -11 -43 -11 -50 0 -62 -7 -46 -27 7 -8 32
-13 65 -13 53 0 54 0 54 -30 l0 -30 -240 0 -240 0 0 30 c0 80 90 178 185 201
47 11 68 10 126 -7z m169 -284 c0 -18 -7 -20 -74 -20 -49 0 -77 -4 -85 -13
-17 -21 -3 -27 66 -27 34 0 63 -2 63 -4 0 -31 -15 -36 -105 -36 -65 0 -96 -4
-104 -13 -17 -22 -3 -27 73 -27 l71 -1 -23 -19 c-12 -10 -46 -24 -76 -31 -102
-22 -223 39 -267 136 -36 79 -49 75 221 75 233 0 240 -1 240 -20z"/>
<path d="M202 487 c-28 -30 -28 -68 1 -95 48 -45 120 -16 120 48 0 65 -76 95
-121 47z m78 -32 c10 -12 10 -18 0 -30 -27 -32 -71 -8 -56 30 3 8 14 15 24 15
11 0 25 -7 32 -15z"/>
</g>
</svg>
