<svg id="SvgjsSvg1001" width="288" height="288" xmlns="http://www.w3.org/2000/svg" version="1.1" xmlns:xlink="http://www.w3.org/1999/xlink" xmlns:svgjs="http://svgjs.com/svgjs"><defs id="SvgjsDefs1002"></defs><g id="SvgjsG1008"><svg xmlns="http://www.w3.org/2000/svg" version="1.0" viewBox="0 0 752 752" width="288" height="288"><path d="M563.4 161.9c-1.8.4-4.7 1.8-6.5 2.9-1.9 1.2-43.7 42.4-92.9 91.7L374.5 346l-89-88.9c-48.9-48.9-90.5-89.7-92.4-90.6-1.9-.9-5.9-1.9-9-2.2-4.8-.4-6.4-.1-11.1 2.4-7.5 4-11.2 9.4-11.8 17.3-.3 4.1.1 7.4 1.2 10.3 1.3 3.4 19.1 21.7 91.1 93.7l89.5 89.5-18.2 18.2-18.2 18.3-3.8-3.7c-6.5-6.3-8-5.7-22.5 9-12.4 12.5-12.6 12.7-12 16.4l.6 3.8-13.6 9.5c-17.4 12.2-18.3 13.1-18.3 17.3 0 2.5.9 4.2 3.5 6.7l3.5 3.4-5.2 5.3-5.2 5.3-5.3-5.2-5.3-5.3-5.2 5.3-5.3 5.2 5.3 5.3 5.2 5.2-10.4 10.4-10.5 10.4-4-3.6c-4.5-4.1-7.8-4.7-10.9-1.9-2.3 2-26.9 36.4-28.4 39.8-.8 1.7-.7 3.1.1 5.2 1.7 4.1 33 34.9 36.3 35.7 1.5.4 3.6.1 4.9-.6 5.5-2.9 39.7-27.9 40.3-29.4 1.2-3.3.5-5.6-3.1-9.6l-3.6-4 10.4-10.5 10.4-10.4 5.2 5.2 5.3 5.3 5.2-5.3 5.3-5.2-5.3-5.3-5.2-5.3 5.3-5.2 5.3-5.2 3.4 3.5c2.5 2.6 4.2 3.5 6.7 3.5 4.2 0 5.1-.9 17.3-18.3l9.5-13.6 3.8.6c3.7.6 4 .3 15.3-10.8 15.9-15.6 16.4-16.9 9.8-23.9l-3.4-3.6 18.3-18.2 18.2-18.2 19.5 19.5c15.3 15.3 19.2 19.7 18.2 20.7-.7.7-1.2 2.5-1.2 4.2 0 2.5 2.9 5.9 19.8 22.8 10.8 10.9 20.8 20.2 22.1 20.5 1.4.3 3.7.1 5.2-.4 2.6-1 4.1.4 50.5 46.8 42 42 48.3 47.9 50.9 47.9 2.5 0 5.1-2 15.8-12.8 10.5-10.5 12.7-13.2 12.7-15.7s-5.2-8.1-37.5-40.5L513 484.5l5.2-5.3 5.3-5.2-5.3-5.2-5.2-5.3-5.3 5.3-5.3 5.2-5.3-5.4c-4.8-4.8-5.2-5.6-4.1-7.6.6-1.2.9-3.2.6-4.4-.3-1.1-6.1-7.7-13-14.5l-12.5-12.4-4.3.7-4.2.7-26.8-26.8-26.8-26.8 90.4-90.5c49.7-49.8 91.2-92.1 92.2-94 1.1-2.2 1.8-5.8 1.8-9.7 0-5.1-.5-7-3-11-5-8.1-15.4-12.6-24-10.4zm10.1 16.6c5.6 5.5 10.1.4-87.8 98.3L395.5 367l-5.3-5.2-5.2-5.3 90.3-90.3c97.8-97.8 92.7-93.3 98.2-87.7zM315.4 307.9l128.8 128.8-7.8 2.7-7.9 2.6-126.2-126.2C186.4 199.9 176 189.2 176 186.3c0-4.3 3-7.3 7.2-7.3 3 0 14 10.7 132.2 128.9zm30.9 108.3C336.5 426 328 434 327.5 434c-1.3 0-9.5-8.2-9.5-9.5 0-.6 8-9 17.7-18.7l17.8-17.8 5.2 5.2 5.3 5.3-17.7 17.7zm-34.1 23.5c8.2 8.1 14.8 15.2 14.8 15.8 0 .5-2.1 3.1-4.7 5.7l-4.8 4.8-15.7-15.7-15.8-15.8 4.7-4.7c2.6-2.7 5.2-4.8 5.8-4.8.5 0 7.6 6.6 15.7 14.7zm157.6 12.6 6.2 6.2-10.5 10.5-10.5 10.5-11.6-11.7-11.7-11.6 15.4-5.1c8.5-2.8 15.6-5.1 15.9-5.1.3 0 3.4 2.8 6.8 6.3zm-186.5.5 2.7 2.8-10.5 10.4-10.5 10.5-4.7-4.7c-2.6-2.6-4.5-4.9-4.3-5.1 1.8-1.6 23.4-16.7 24-16.7.3 0 1.8 1.3 3.3 2.8zM302 472c0 .6-15.1 22.2-16.7 24-.2.2-2.5-1.7-5.1-4.3l-4.7-4.7 10.5-10.5 10.4-10.5 2.8 2.7c1.5 1.5 2.8 3 2.8 3.3zm189 12.4c0 .6-2.1 3.2-4.7 5.8l-4.7 4.8-5.3-5.2-5.3-5.2 5.2-5.3 5.2-5.3 4.8 4.7c2.6 2.6 4.8 5.2 4.8 5.7zm-231.2 18.3-5.2 5.3-5.3-5.2-5.3-5.2 5.2-5.3 5.2-5.3 5.3 5.2 5.3 5.2-5.2 5.3zm247.5 7.5-5.3 5.3-5-5-5-4.9 5.2-5.3 5.3-5.3 5 5 5 5-5.2 5.2zM233.5 529 223 539.5l-5.2-5.3-5.3-5.2 10.5-10.5 10.5-10.5 5.2 5.2 5.3 5.3-10.5 10.5zM547 539.5l23.5 23.5-5.3 5.2-5.2 5.3-23.7-23.7-23.8-23.8 5-5c2.7-2.7 5.2-5 5.5-5 .3 0 11.1 10.6 24 23.5zM191.5 550 181 560.5l-3-3-3-3 8.7-12.3 8.7-12.2 4.8 4.7 4.8 4.8-10.5 10.5zm30.2 9.7c-.2.1-5.7 4.1-12.3 8.8l-11.9 8.5-3-3-3-3 10.5-10.5 10.4-10.5 4.8 4.7c2.6 2.6 4.6 4.8 4.5 5z" fill="#ffffff" class="color000 svgShape"></path><path d="M369 265v44h14v-88h-14v44zM331.5 250.1c-2.7 1.1-5.3 2.4-5.7 2.8-.6.5 12.1 34.5 13.7 36.8.2.3 12.7-4.6 13.3-5.2.7-.6-14.3-36.5-15.2-36.4-.6 0-3.3.9-6.1 2zM406.2 266.1c-4 10-7.1 18.3-7 18.4.6.6 13.1 5.5 13.3 5.2.1-.1 10-24.7 14.2-35.4.3-.8-1.4-2.1-4.2-3.3-9.5-4.1-8.2-5.3-16.3 15.1zM251 329.5c-4.1 9.5-5.3 8.2 15.1 16.3 10 4 18.2 7.1 18.3 7 .9-1.3 4.6-11.3 4.6-12.3s-10.4-5.6-34.7-15.2c-.8-.3-2.1 1.4-3.3 4.2zM480 332.3c-9.6 3.8-17.6 7.1-17.7 7.2-.3.2 4.7 12.8 5.3 13.4.2.2 8.5-2.9 18.4-6.9 17-6.8 18.1-7.4 17.6-9.5-1-4-4.5-11.5-5.3-11.4-.4 0-8.7 3.3-18.3 7.2zM221 376v7h88v-14h-88v7zM443 376v7h88v-14h-88v7zM254.5 410.7c-3.3 1.4-6.2 2.7-6.4 2.9-.5.5 4 12.3 4.9 12.9 1.1.7 14-4.7 14-5.9 0-2.2-4.5-12.6-5.5-12.5-.5 0-3.7 1.2-7 2.6zM486.7 414.7c-1.5 3.7-2.6 6.7-2.4 6.8 2.2 1.5 14.2 5.4 14.7 4.8.9-1 5.2-12.5 4.8-12.8-.5-.5-13.1-5.5-13.8-5.5-.4 0-1.9 3-3.3 6.7zM369 487v44h14v-88h-14v44zM328.2 490.2c-1.1 2.9-2.3 6.1-2.7 7-.6 1.4.3 2.2 4 3.8 9.1 3.9 8.8 4 11.9-4 1.6-3.9 2.7-7.2 2.5-7.4-1.1-.8-11.4-4.6-12.4-4.6-.7 0-2.1 2.4-3.3 5.2zM413.5 487.3c-2.7 1.1-5.2 2.2-5.4 2.3-.2.2.9 3.5 2.5 7.4 3.1 8 2.8 7.9 11.9 4 3.7-1.6 4.6-2.4 4-3.8-.4-.9-1.6-4.1-2.7-7-2.3-5.9-2.9-6-10.3-2.9z" fill="#ffffff" class="color000 svgShape"></path></svg></g></svg>